<mxfile host="app.diagrams.net" modified="2021-03-10T16:28:57.014Z" agent="5.0 (Macintosh; Intel Mac OS X 10_15_7) AppleWebKit/537.36 (KHTML, like Gecko) Chrome/88.0.4324.192 Safari/537.36" etag="cqhadik4vqGCdn_YQbJK" version="14.4.2" type="github">
  <diagram id="GDe1zzw1R1Iudi7BCuyX" name="Page-1">
    <mxGraphModel dx="2036" dy="1873" grid="1" gridSize="10" guides="1" tooltips="1" connect="1" arrows="1" fold="1" page="1" pageScale="1" pageWidth="850" pageHeight="1100" math="0" shadow="0">
      <root>
        <mxCell id="0" />
        <mxCell id="1" parent="0" />
        <mxCell id="JqMZqRdezllM6rYK4mv--22" value="Population Registry and ID Systems" style="whiteSpace=wrap;html=1;aspect=fixed;verticalAlign=top;" parent="1" vertex="1">
          <mxGeometry x="-90" y="-730" width="240" height="240" as="geometry" />
        </mxCell>
        <mxCell id="JqMZqRdezllM6rYK4mv--1" value="ID BB" style="whiteSpace=wrap;html=1;aspect=fixed;" parent="1" vertex="1">
          <mxGeometry x="-10" y="-700" width="80" height="80" as="geometry" />
        </mxCell>
        <mxCell id="JqMZqRdezllM6rYK4mv--10" value="" style="ellipse;shape=cloud;whiteSpace=wrap;html=1;" parent="1" vertex="1">
          <mxGeometry x="320" y="-770" width="120" height="80" as="geometry" />
        </mxCell>
        <mxCell id="JqMZqRdezllM6rYK4mv--11" value="" style="endArrow=classic;startArrow=classic;html=1;entryX=0;entryY=0.5;entryDx=0;entryDy=0;exitX=0.875;exitY=0.5;exitDx=0;exitDy=0;exitPerimeter=0;" parent="1" source="JqMZqRdezllM6rYK4mv--10" target="JqMZqRdezllM6rYK4mv--8" edge="1">
          <mxGeometry width="50" height="50" relative="1" as="geometry">
            <mxPoint x="380" y="-580" as="sourcePoint" />
            <mxPoint x="430" y="-630" as="targetPoint" />
          </mxGeometry>
        </mxCell>
        <mxCell id="JqMZqRdezllM6rYK4mv--12" value="" style="endArrow=classic;startArrow=classic;html=1;entryX=0;entryY=0.5;entryDx=0;entryDy=0;exitX=1;exitY=0.5;exitDx=0;exitDy=0;" parent="1" source="JqMZqRdezllM6rYK4mv--1" target="JqMZqRdezllM6rYK4mv--20" edge="1">
          <mxGeometry width="50" height="50" relative="1" as="geometry">
            <mxPoint x="200" y="-670" as="sourcePoint" />
            <mxPoint x="275" y="-670" as="targetPoint" />
          </mxGeometry>
        </mxCell>
        <mxCell id="JqMZqRdezllM6rYK4mv--18" value="Population Registry BB" style="whiteSpace=wrap;html=1;aspect=fixed;" parent="1" vertex="1">
          <mxGeometry x="-10" y="-600" width="80" height="80" as="geometry" />
        </mxCell>
        <mxCell id="JqMZqRdezllM6rYK4mv--19" value="" style="endArrow=classic;startArrow=classic;html=1;entryX=0;entryY=0.5;entryDx=0;entryDy=0;exitX=1;exitY=0.5;exitDx=0;exitDy=0;" parent="1" source="JqMZqRdezllM6rYK4mv--18" target="JqMZqRdezllM6rYK4mv--20" edge="1">
          <mxGeometry width="50" height="50" relative="1" as="geometry">
            <mxPoint x="220" y="-540" as="sourcePoint" />
            <mxPoint x="292" y="-460" as="targetPoint" />
          </mxGeometry>
        </mxCell>
        <mxCell id="JqMZqRdezllM6rYK4mv--20" value="Security Server" style="whiteSpace=wrap;html=1;aspect=fixed;" parent="1" vertex="1">
          <mxGeometry x="180" y="-650" width="80" height="80" as="geometry" />
        </mxCell>
        <mxCell id="JqMZqRdezllM6rYK4mv--21" value="" style="endArrow=classic;startArrow=classic;html=1;exitX=1;exitY=0.5;exitDx=0;exitDy=0;entryX=0.092;entryY=0.513;entryDx=0;entryDy=0;entryPerimeter=0;" parent="1" source="JqMZqRdezllM6rYK4mv--20" target="JqMZqRdezllM6rYK4mv--10" edge="1">
          <mxGeometry width="50" height="50" relative="1" as="geometry">
            <mxPoint x="290" y="-695" as="sourcePoint" />
            <mxPoint x="300" y="-670" as="targetPoint" />
          </mxGeometry>
        </mxCell>
        <mxCell id="2Qj5bnTM5P2zq_CmHV_z-1" value="Central Banking System" style="whiteSpace=wrap;html=1;aspect=fixed;verticalAlign=top;" parent="1" vertex="1">
          <mxGeometry x="-90" y="-990" width="240" height="240" as="geometry" />
        </mxCell>
        <mxCell id="2Qj5bnTM5P2zq_CmHV_z-2" value="Payments BB" style="whiteSpace=wrap;html=1;aspect=fixed;" parent="1" vertex="1">
          <mxGeometry x="-10" y="-960" width="80" height="80" as="geometry" />
        </mxCell>
        <mxCell id="2Qj5bnTM5P2zq_CmHV_z-3" value="Accounts Registry BB" style="whiteSpace=wrap;html=1;aspect=fixed;" parent="1" vertex="1">
          <mxGeometry x="-10" y="-860" width="80" height="80" as="geometry" />
        </mxCell>
        <mxCell id="2Qj5bnTM5P2zq_CmHV_z-4" value="Security Server" style="whiteSpace=wrap;html=1;aspect=fixed;" parent="1" vertex="1">
          <mxGeometry x="180" y="-910" width="80" height="80" as="geometry" />
        </mxCell>
        <mxCell id="2Qj5bnTM5P2zq_CmHV_z-5" value="" style="endArrow=classic;startArrow=classic;html=1;exitX=1;exitY=0.5;exitDx=0;exitDy=0;entryX=0.07;entryY=0.4;entryDx=0;entryDy=0;entryPerimeter=0;" parent="1" source="2Qj5bnTM5P2zq_CmHV_z-4" target="JqMZqRdezllM6rYK4mv--10" edge="1">
          <mxGeometry width="50" height="50" relative="1" as="geometry">
            <mxPoint x="290" y="-955" as="sourcePoint" />
            <mxPoint x="301.03999999999996" y="-868.96" as="targetPoint" />
          </mxGeometry>
        </mxCell>
        <mxCell id="2Qj5bnTM5P2zq_CmHV_z-6" value="" style="endArrow=classic;startArrow=classic;html=1;entryX=0;entryY=0.5;entryDx=0;entryDy=0;exitX=1;exitY=0.5;exitDx=0;exitDy=0;" parent="1" edge="1">
          <mxGeometry width="50" height="50" relative="1" as="geometry">
            <mxPoint x="70" y="-920" as="sourcePoint" />
            <mxPoint x="180" y="-870" as="targetPoint" />
          </mxGeometry>
        </mxCell>
        <mxCell id="2Qj5bnTM5P2zq_CmHV_z-7" value="" style="endArrow=classic;startArrow=classic;html=1;entryX=0;entryY=0.5;entryDx=0;entryDy=0;exitX=1;exitY=0.5;exitDx=0;exitDy=0;" parent="1" edge="1">
          <mxGeometry width="50" height="50" relative="1" as="geometry">
            <mxPoint x="70" y="-820" as="sourcePoint" />
            <mxPoint x="180" y="-870" as="targetPoint" />
          </mxGeometry>
        </mxCell>
        <mxCell id="2Qj5bnTM5P2zq_CmHV_z-14" value="" style="group" parent="1" vertex="1" connectable="0">
          <mxGeometry x="470" y="-880" width="350" height="240" as="geometry" />
        </mxCell>
        <mxCell id="JqMZqRdezllM6rYK4mv--13" value="&lt;span id=&quot;docs-internal-guid-d1cbb6c7-7fff-2ffb-d0a0-957149ed9853&quot;&gt;&lt;span style=&quot;font-size: 10pt ; font-family: &amp;#34;arial&amp;#34; ; color: rgb(33 , 37 , 41) ; background-color: transparent ; vertical-align: baseline&quot;&gt;Beneficiary Operations Management System&lt;/span&gt;&lt;/span&gt;" style="whiteSpace=wrap;html=1;aspect=fixed;verticalAlign=top;" parent="2Qj5bnTM5P2zq_CmHV_z-14" vertex="1">
          <mxGeometry x="110" width="240" height="240" as="geometry" />
        </mxCell>
        <mxCell id="JqMZqRdezllM6rYK4mv--6" value="Beneficiary Registry BB" style="whiteSpace=wrap;html=1;aspect=fixed;" parent="2Qj5bnTM5P2zq_CmHV_z-14" vertex="1">
          <mxGeometry x="250" y="40" width="80" height="79" as="geometry" />
        </mxCell>
        <mxCell id="JqMZqRdezllM6rYK4mv--7" value="Information Mediation BB" style="whiteSpace=wrap;html=1;aspect=fixed;" parent="2Qj5bnTM5P2zq_CmHV_z-14" vertex="1">
          <mxGeometry x="130" y="39" width="80" height="80" as="geometry" />
        </mxCell>
        <mxCell id="JqMZqRdezllM6rYK4mv--8" value="Security Server" style="whiteSpace=wrap;html=1;aspect=fixed;" parent="2Qj5bnTM5P2zq_CmHV_z-14" vertex="1">
          <mxGeometry y="80" width="80" height="80" as="geometry" />
        </mxCell>
        <mxCell id="JqMZqRdezllM6rYK4mv--9" value="" style="endArrow=classic;startArrow=classic;html=1;entryX=0;entryY=0.5;entryDx=0;entryDy=0;exitX=1;exitY=0.5;exitDx=0;exitDy=0;" parent="2Qj5bnTM5P2zq_CmHV_z-14" source="JqMZqRdezllM6rYK4mv--8" target="JqMZqRdezllM6rYK4mv--7" edge="1">
          <mxGeometry width="50" height="50" relative="1" as="geometry">
            <mxPoint x="100" y="140" as="sourcePoint" />
            <mxPoint x="110" y="120" as="targetPoint" />
          </mxGeometry>
        </mxCell>
        <mxCell id="JqMZqRdezllM6rYK4mv--17" value="" style="endArrow=classic;startArrow=classic;html=1;exitX=1;exitY=0.5;exitDx=0;exitDy=0;entryX=0;entryY=0.5;entryDx=0;entryDy=0;" parent="2Qj5bnTM5P2zq_CmHV_z-14" source="JqMZqRdezllM6rYK4mv--7" target="JqMZqRdezllM6rYK4mv--6" edge="1">
          <mxGeometry width="50" height="50" relative="1" as="geometry">
            <mxPoint x="230" y="119.5" as="sourcePoint" />
            <mxPoint x="250" y="120" as="targetPoint" />
          </mxGeometry>
        </mxCell>
        <mxCell id="2Qj5bnTM5P2zq_CmHV_z-8" value="Batch Payments Scheduler BB" style="whiteSpace=wrap;html=1;aspect=fixed;" parent="2Qj5bnTM5P2zq_CmHV_z-14" vertex="1">
          <mxGeometry x="250" y="141" width="80" height="79" as="geometry" />
        </mxCell>
        <mxCell id="2Qj5bnTM5P2zq_CmHV_z-9" value="" style="endArrow=classic;startArrow=classic;html=1;entryX=0;entryY=0.5;entryDx=0;entryDy=0;exitX=1;exitY=0.5;exitDx=0;exitDy=0;" parent="2Qj5bnTM5P2zq_CmHV_z-14" target="2Qj5bnTM5P2zq_CmHV_z-8" edge="1" source="JqMZqRdezllM6rYK4mv--8">
          <mxGeometry width="50" height="50" relative="1" as="geometry">
            <mxPoint x="210" y="120" as="sourcePoint" />
            <mxPoint x="260" y="89.5" as="targetPoint" />
          </mxGeometry>
        </mxCell>
        <mxCell id="2Qj5bnTM5P2zq_CmHV_z-12" value="" style="endArrow=classic;startArrow=classic;html=1;" parent="2Qj5bnTM5P2zq_CmHV_z-14" target="2Qj5bnTM5P2zq_CmHV_z-8" edge="1">
          <mxGeometry width="50" height="50" relative="1" as="geometry">
            <mxPoint x="290" y="120" as="sourcePoint" />
            <mxPoint x="315" y="130" as="targetPoint" />
          </mxGeometry>
        </mxCell>
      </root>
    </mxGraphModel>
  </diagram>
</mxfile>
